<svg version="1.1" xmlns="http://www.w3.org/2000/svg" xmlns:xlink="http://www.w3.org/1999/xlink" width="563.06306" height="448.94895" viewBox="0,0,563.06306,448.94895"><g transform="translate(36.53153,39.47445)"><g data-paper-data="{&quot;isPaintingLayer&quot;:true}" fill-rule="nonzero" stroke-linejoin="miter" stroke-miterlimit="10" stroke-dasharray="" stroke-dashoffset="0" style="mix-blend-mode: normal"><path d="M-36.53153,409.47451v-448.94895h563.06306v448.94895z" fill="#33cc71" stroke="none" stroke-width="0" stroke-linecap="butt"/><g><path d="M205.36643,180.76639c0,-24.34079 8.71863,-50.88212 34.63358,-50.88212c25.91494,0 34.63358,26.54133 34.63358,50.88212c0,24.34079 -8.71864,35.81349 -34.63358,35.81349c-25.91494,0 -34.63358,-11.47269 -34.63358,-35.81349z" data-paper-data="{&quot;index&quot;:null}" fill="#ffe299" stroke="#260e00" stroke-width="3.5" stroke-linecap="butt"/><path d="M260.75001,186.75684l13.125,-11.125" data-paper-data="{&quot;index&quot;:null}" fill="none" stroke="#260e00" stroke-width="3.5" stroke-linecap="round"/><path d="M249.42384,231.84497c-2.69688,0 -4.88312,-1.11197 -4.88312,-3.80884c0,-2.69688 2.18625,-4.88312 4.88312,-4.88312c2.69688,0 4.88312,2.18625 4.88312,4.88312c0,2.69688 -2.18625,3.80884 -4.88312,3.80884z" data-paper-data="{&quot;index&quot;:null}" fill="#260e00" stroke="none" stroke-width="0" stroke-linecap="butt"/><g data-paper-data="{&quot;index&quot;:null}"><path d="M245.65607,174.88805c0,-2.45287 2.68784,-3.39218 5.14071,-3.39218c2.45287,0 5.14072,0.93931 5.14072,3.39218c0,2.45286 -2.68785,3.53205 -5.14072,3.53205c-2.45286,0 -5.14071,-1.07919 -5.14071,-3.53205z" data-paper-data="{&quot;index&quot;:null}" fill-opacity="0.4" fill="#ff99b8" stroke="none" stroke-width="0" stroke-linecap="butt"/><path d="M224.06252,174.84261c0,-2.45285 2.68786,-3.39217 5.14072,-3.39217c2.45285,0 5.14072,0.93931 5.14072,3.39217c0,2.45286 -2.68785,3.53206 -5.14072,3.53206c-2.45286,0 -5.14072,-1.07919 -5.14072,-3.53206z" data-paper-data="{&quot;index&quot;:null}" fill-opacity="0.4" fill="#ff99b8" stroke="none" stroke-width="0" stroke-linecap="butt"/><path d="M244.13803,175.11296c-2.42521,2.44668 -6.2775,2.18626 -8.27605,0" data-paper-data="{&quot;index&quot;:null}" fill="none" stroke="#260e00" stroke-width="3" stroke-linecap="round"/><path d="M242.37832,161.65084c0,-4.17438 0.32848,-7.55838 4.50287,-7.55838c4.17438,0 4.483,3.384 4.483,7.55838c0,4.17438 -0.30862,7.55838 -4.483,7.55838c-4.17437,0 -4.50287,-3.384 -4.50287,-7.55838z" data-paper-data="{&quot;index&quot;:null}" fill="#fff066" stroke="#260e00" stroke-width="2" stroke-linecap="butt"/><path d="M233.11881,169.20922c-4.17438,0 -4.48299,-3.384 -4.48299,-7.55838c0,-4.17438 0.30861,-7.55838 4.48299,-7.55838c4.17439,0 4.50287,3.384 4.50287,7.55838c0,4.17438 -0.32849,7.55838 -4.50287,7.55838z" data-paper-data="{&quot;index&quot;:null}" fill="#fff066" stroke="#260e00" stroke-width="2" stroke-linecap="butt"/></g><path d="M249.41096,217.09651v10.29037" data-paper-data="{&quot;index&quot;:null}" fill="none" stroke="#260e00" stroke-width="3.5" stroke-linecap="round"/><path d="M230.48204,231.86575c-2.69688,0 -4.88312,-1.11197 -4.88312,-3.80884c0,-2.69688 2.18625,-4.88312 4.88312,-4.88312c2.69688,0 4.88312,2.18625 4.88312,4.88312c0,2.69688 -2.18625,3.80884 -4.88312,3.80884z" data-paper-data="{&quot;index&quot;:null}" fill="#260e00" stroke="none" stroke-width="0" stroke-linecap="butt"/><path d="M230.46916,227.40768v-10.29037" data-paper-data="{&quot;index&quot;:null}" fill="none" stroke="#260e00" stroke-width="3.5" stroke-linecap="round"/><path d="M206.29519,175.65526l13.125,11.125" data-paper-data="{&quot;index&quot;:null}" fill="none" stroke="#260e00" stroke-width="3.5" stroke-linecap="round"/></g><text transform="translate(73.85002,39.98985) scale(0.6875,0.6875)" font-size="40" xml:space="preserve" fill="#ffffff" fill-rule="nonzero" stroke="#ffffff" stroke-width="1" stroke-linecap="butt" stroke-linejoin="miter" stroke-miterlimit="10" stroke-dasharray="" stroke-dashoffset="0" font-family="Serif" font-weight="normal" text-anchor="start" style="mix-blend-mode: normal"><tspan x="0" dy="0">間もなく商品が到着します</tspan></text></g></g></svg>