<svg version="1.1" xmlns="http://www.w3.org/2000/svg" xmlns:xlink="http://www.w3.org/1999/xlink" width="54" height="54" viewBox="0,0,54,54"><g transform="translate(-213,-153)"><g data-paper-data="{&quot;isPaintingLayer&quot;:true}" fill-rule="nonzero" stroke-linecap="butt" stroke-linejoin="miter" stroke-miterlimit="10" stroke-dasharray="" stroke-dashoffset="0" style="mix-blend-mode: normal"><path d="M213,180c0,-25.19561 1.80439,-27 27,-27c25.19561,0 27,1.80439 27,27c0,25.19561 -1.80439,27 -27,27c-25.19561,0 -27,-1.80439 -27,-27z" fill="#ffbf66" stroke="none" stroke-width="0"/><path d="M225,180c0,-13.99756 1.00244,-15 15,-15c13.99756,0 15,1.00244 15,15c0,13.99756 -1.00244,15 -15,15c-13.99756,0 -15,-1.00244 -15,-15z" fill="#ffffff" stroke="none" stroke-width="0"/><text transform="translate(230.3716,183.60208) scale(0.31221,0.31221)" font-size="40" xml:space="preserve" fill="#000000" fill-rule="nonzero" stroke="#000000" stroke-width="2" stroke-linecap="butt" stroke-linejoin="miter" stroke-miterlimit="10" stroke-dasharray="" stroke-dashoffset="0" font-family="Serif" font-weight="normal" text-anchor="start" style="mix-blend-mode: normal"><tspan x="0" dy="0">2個</tspan></text></g></g></svg>