<svg version="1.1" xmlns="http://www.w3.org/2000/svg" xmlns:xlink="http://www.w3.org/1999/xlink" width="480.54054" height="360" viewBox="0,0,480.54054,360"><g transform="translate(0.27027,0)"><g data-paper-data="{&quot;isPaintingLayer&quot;:true}" fill-rule="nonzero" stroke-linejoin="miter" stroke-miterlimit="10" stroke-dasharray="" stroke-dashoffset="0" style="mix-blend-mode: normal"><path d="M-0.27027,359.6997v-359.3994h150.54054v359.3994z" fill="#0a190c" stroke="#000000" stroke-width="0" stroke-linecap="butt"/><path d="M334.72973,359.6997v-359.3994h145.54054v359.3994z" fill="#0a190c" stroke="#000000" stroke-width="0" stroke-linecap="butt"/><path d="M139,360v-360h202v360z" fill="#33cc71" stroke="none" stroke-width="0" stroke-linecap="butt"/><g><path d="M200.36644,175.76637c0,-24.34079 8.71863,-50.88212 34.63358,-50.88212c25.91494,0 34.63358,26.54133 34.63358,50.88212c0,24.34079 -8.71864,35.81349 -34.63358,35.81349c-25.91494,0 -34.63358,-11.47269 -34.63358,-35.81349z" data-paper-data="{&quot;index&quot;:null}" fill="#ffe299" stroke="#260e00" stroke-width="3.5" stroke-linecap="butt"/><path d="M255.75002,181.75682l13.125,-11.125" data-paper-data="{&quot;index&quot;:null}" fill="none" stroke="#260e00" stroke-width="3.5" stroke-linecap="round"/><path d="M244.42385,226.84495c-2.69688,0 -4.88312,-1.11197 -4.88312,-3.80884c0,-2.69688 2.18625,-4.88312 4.88312,-4.88312c2.69688,0 4.88312,2.18625 4.88312,4.88312c0,2.69688 -2.18625,3.80884 -4.88312,3.80884z" data-paper-data="{&quot;index&quot;:null}" fill="#260e00" stroke="none" stroke-width="0" stroke-linecap="butt"/><g data-paper-data="{&quot;index&quot;:null}"><path d="M240.65608,169.88803c0,-2.45287 2.68784,-3.39218 5.14071,-3.39218c2.45287,0 5.14072,0.93931 5.14072,3.39218c0,2.45286 -2.68785,3.53205 -5.14072,3.53205c-2.45286,0 -5.14071,-1.07919 -5.14071,-3.53205z" data-paper-data="{&quot;index&quot;:null}" fill-opacity="0.4" fill="#ff99b8" stroke="none" stroke-width="0" stroke-linecap="butt"/><path d="M219.06253,169.84259c0,-2.45285 2.68786,-3.39217 5.14072,-3.39217c2.45285,0 5.14072,0.93931 5.14072,3.39217c0,2.45286 -2.68785,3.53206 -5.14072,3.53206c-2.45286,0 -5.14072,-1.07919 -5.14072,-3.53206z" data-paper-data="{&quot;index&quot;:null}" fill-opacity="0.4" fill="#ff99b8" stroke="none" stroke-width="0" stroke-linecap="butt"/><path d="M239.13804,170.11294c-2.42521,2.44668 -6.2775,2.18626 -8.27605,0" data-paper-data="{&quot;index&quot;:null}" fill="none" stroke="#260e00" stroke-width="3" stroke-linecap="round"/><path d="M237.37833,156.65082c0,-4.17438 0.32848,-7.55838 4.50287,-7.55838c4.17438,0 4.483,3.384 4.483,7.55838c0,4.17438 -0.30862,7.55838 -4.483,7.55838c-4.17437,0 -4.50287,-3.384 -4.50287,-7.55838z" data-paper-data="{&quot;index&quot;:null}" fill="#fff066" stroke="#260e00" stroke-width="2" stroke-linecap="butt"/><path d="M228.11882,164.2092c-4.17438,0 -4.48299,-3.384 -4.48299,-7.55838c0,-4.17438 0.30861,-7.55838 4.48299,-7.55838c4.17439,0 4.50287,3.384 4.50287,7.55838c0,4.17438 -0.32849,7.55838 -4.50287,7.55838z" data-paper-data="{&quot;index&quot;:null}" fill="#fff066" stroke="#260e00" stroke-width="2" stroke-linecap="butt"/></g><path d="M244.41097,222.38686v-10.29037" data-paper-data="{&quot;index&quot;:null}" fill="none" stroke="#260e00" stroke-width="3.5" stroke-linecap="round"/><path d="M225.48205,226.86573c-2.69688,0 -4.88312,-1.11197 -4.88312,-3.80884c0,-2.69688 2.18625,-4.88312 4.88312,-4.88312c2.69688,0 4.88312,2.18625 4.88312,4.88312c0,2.69688 -2.18625,3.80884 -4.88312,3.80884z" data-paper-data="{&quot;index&quot;:null}" fill="#260e00" stroke="none" stroke-width="0" stroke-linecap="butt"/><path d="M225.46917,212.11729v10.29037" data-paper-data="{&quot;index&quot;:null}" fill="none" stroke="#260e00" stroke-width="3.5" stroke-linecap="round"/><path d="M201.2952,170.65524l13.125,11.125" data-paper-data="{&quot;index&quot;:null}" fill="none" stroke="#260e00" stroke-width="3.5" stroke-linecap="round"/></g><text transform="translate(148.85003,28.18983) scale(0.3875,0.3875)" font-size="40" xml:space="preserve" fill="#ffffff" fill-rule="nonzero" stroke="#ffffff" stroke-width="1" stroke-linecap="butt" stroke-linejoin="miter" stroke-miterlimit="10" stroke-dasharray="" stroke-dashoffset="0" font-family="Serif" font-weight="normal" text-anchor="start" style="mix-blend-mode: normal"><tspan x="0" dy="0">間もなく商品が到着します</tspan></text></g></g></svg>